<svg width="826" height="592" viewBox="0 0 826 592" fill="none" xmlns="http://www.w3.org/2000/svg">
<rect width="826" height="592" fill="#F5F5F5"/>
<g id="world 1" clip-path="url(#clip0_0_1)">
<path id="Vector" d="M667.825 376.317C668.563 376.386 669.304 376.226 669.947 375.859C670.591 375.492 671.106 374.936 671.424 374.267C671.741 373.597 671.845 372.846 671.721 372.116C671.597 371.386 671.252 370.711 670.732 370.183C670.658 369.817 670.605 369.554 670.531 369.188C670.567 369.111 670.603 369.034 670.64 368.957C671.466 367.232 672.784 365.791 674.428 364.813C676.071 363.835 677.967 363.364 679.877 363.46C681.787 363.556 683.626 364.215 685.163 365.353C686.7 366.49 687.866 368.057 688.516 369.856C691.112 377.035 694.507 384.263 695.077 391.752C695.327 395.063 695.002 398.391 694.114 401.591C701.68 386.928 706.005 370.81 706.795 354.33C706.989 350.194 706.951 346.051 706.683 341.92C706.459 338.532 706.088 335.162 705.568 331.809C702.726 313.616 695.608 296.356 684.8 281.448C679.387 278.158 675.111 273.288 672.55 267.494C671.622 265.411 671 263.204 670.704 260.943C671.327 261.054 671.961 261.135 672.586 261.205C672.78 261.225 672.985 261.245 673.18 261.264L673.254 261.271C673.941 261.334 674.632 261.197 675.243 260.876C675.854 260.556 676.36 260.065 676.699 259.464C677.038 258.863 677.196 258.177 677.154 257.488C677.112 256.799 676.871 256.137 676.462 255.581C676.207 255.236 675.952 254.891 675.696 254.545C675.309 254.012 674.911 253.49 674.524 252.957C674.479 252.906 674.437 252.852 674.398 252.796C673.953 252.189 673.507 251.592 673.062 250.984C673.987 249.685 675.199 248.618 676.604 247.865C681.469 245.312 687.913 247.537 691.134 251.98C694.366 256.423 694.733 262.463 693.293 267.76C691.909 272.259 689.769 276.49 686.966 280.272C687.207 280.613 687.459 280.943 687.701 281.284C692.114 287.539 695.904 294.212 699.016 301.207C698.539 293.511 699.895 285.811 702.973 278.742C706.066 272.164 711.541 266.757 716.4 261.172C722.237 254.464 733.399 258.03 733.96 266.904C733.965 266.99 733.97 267.076 733.975 267.162C733.276 267.515 732.589 267.892 731.916 268.293C731.071 268.803 730.399 269.557 729.988 270.455C729.578 271.353 729.449 272.354 729.617 273.327C729.786 274.3 730.244 275.2 730.933 275.908C731.621 276.616 732.508 277.099 733.475 277.295L733.575 277.315C733.217 279.76 732.675 282.175 731.951 284.538C729.867 291.133 726.443 297.226 721.894 302.435C717.345 307.644 711.769 311.857 705.515 314.81C705.105 314.997 704.705 315.184 704.295 315.361C707.287 325.288 708.975 335.561 709.317 345.923C709.499 352.036 709.187 358.153 708.383 364.215L708.424 364.001C710.054 357.294 713.949 351.356 719.45 347.188C727.617 341.092 738.841 339.23 747.568 334.432C748.497 333.895 749.56 333.634 750.632 333.682C751.704 333.729 752.74 334.082 753.618 334.698C754.496 335.315 755.179 336.17 755.587 337.162C755.995 338.155 756.11 339.243 755.92 340.299C755.905 340.374 755.89 340.449 755.875 340.524C754.586 340.98 753.327 341.517 752.104 342.129C751.405 342.482 750.719 342.86 750.046 343.261C749.2 343.771 748.528 344.524 748.118 345.422C747.707 346.321 747.578 347.322 747.747 348.295C747.915 349.268 748.374 350.167 749.062 350.875C749.751 351.583 750.637 352.067 751.605 352.262L751.704 352.282C751.775 352.296 751.836 352.309 751.908 352.323C749.506 357.383 746.251 361.992 742.286 365.948C737.392 370.732 731.573 374.466 725.185 376.922C718.797 379.377 711.974 380.502 705.136 380.227L705.126 380.227C702.895 388.204 699.841 395.928 696.013 403.275L667.352 401.94C667.264 401.617 667.187 401.284 667.109 400.961C669.754 401.252 672.425 401.217 675.062 400.858C673.057 398.15 671.053 395.421 669.048 392.713C669.003 392.662 668.96 392.608 668.921 392.552C667.905 391.167 666.878 389.791 665.861 388.405L665.861 388.404C665.994 384.307 666.654 380.245 667.824 376.318L667.825 376.317Z" fill="#F2F2F2"/>
<path id="Vector_2" d="M484.419 117.912C485.831 118.3 487.14 118.994 488.255 119.943C489.37 120.892 490.263 122.074 490.872 123.406C491.481 124.738 491.79 126.187 491.778 127.651C491.766 129.115 491.433 130.559 490.802 131.881L506.109 148.898L498.036 160.722L476.758 136.387C474.608 135.181 472.975 133.228 472.169 130.898C471.362 128.568 471.438 126.024 472.383 123.747C473.327 121.469 475.074 119.617 477.292 118.542C479.511 117.467 482.046 117.242 484.419 117.912Z" fill="#A0616A"/>
<path id="Vector_3" d="M621.758 159.523C620.378 157.277 618.568 155.325 616.433 153.78C614.297 152.235 611.877 151.127 609.312 150.519C606.748 149.911 604.088 149.816 601.486 150.238C598.884 150.661 596.391 151.592 594.15 152.98L543.811 184.158L489.51 138L476 150.579L535.987 228.408L613.952 187.764C612.133 188.712 623.957 163.101 621.758 159.523Z" fill="#CCCCCC"/>
<path id="Vector_4" d="M527.992 263.364C527.997 288.226 523.104 312.845 513.592 335.815C504.08 358.786 490.136 379.657 472.556 397.237C454.976 414.816 434.105 428.761 411.135 438.272C388.165 447.784 363.546 452.677 338.684 452.672C234.133 452.672 149.376 367.915 149.376 263.364C149.358 243.028 152.618 222.821 159.031 203.522C171.621 165.831 195.741 133.051 227.98 109.819C260.219 86.5858 298.946 74.0754 338.684 74.0565C372.956 74.0446 406.587 83.3396 435.989 100.949C465.39 118.559 489.458 143.822 505.622 174.043C509.63 181.499 513.126 189.218 516.087 197.149C516.497 198.253 516.896 199.357 517.285 200.472V200.483C519.021 205.383 520.549 210.376 521.871 215.459C525.948 231.101 528.005 247.2 527.992 263.364Z" fill="#3F3D56"/>
<path id="Vector_5" d="M317.972 135.641C309.465 131.04 300.019 128.443 290.355 128.048C280.692 127.652 271.065 129.469 262.211 133.359C254.414 136.752 246.205 142.839 243.604 153.83C254.123 147.622 267.74 157.431 270.446 173.166L269.815 173.34C268.385 184.239 271.576 196.104 277.755 202.862C278.566 195.843 283.182 191.065 287.722 188.081C292.262 185.097 297.284 182.929 300.749 177.799C304.857 171.718 305.9 162.83 307.532 154.722C309.164 146.614 312.26 137.9 317.972 135.641Z" fill="white"/>
<path id="Vector_6" d="M259.09 228.384C256.177 232.759 252.286 235.505 248.794 238.923C245.313 242.351 242 246.979 241.306 252.921C240.864 256.728 241.548 260.598 241.453 264.448C241.359 268.297 240.076 272.63 237.457 273.587C233.324 275.08 230.168 267.403 225.92 266.867C222.543 266.446 219.504 271.757 220.482 276.364C221.46 280.97 226.056 283.01 228.696 280.002C231.083 284.009 229.401 291.277 225.814 292.507C225.436 295.031 225.057 297.545 224.689 300.069C215.623 293.727 206.463 287.28 198.754 277.994C190.18 267.753 184.862 255.184 183.483 241.899C182.484 231.224 183.967 219.014 179.066 210.8C175.143 204.227 168.412 202.775 162.354 203.186C161.25 203.259 160.135 203.385 159.031 203.522C162.603 192.792 167.141 182.408 172.587 172.497C173.82 171.968 174.965 171.255 175.984 170.383C181.621 165.597 184.125 155.911 188.699 149.212C188.994 148.78 189.299 148.36 189.614 147.95C194.295 141.839 200.563 138.695 206.621 135.771C220.03 129.261 233.828 122.666 247.984 123.571L243.956 123.96C239.255 137.128 234.551 150.295 229.842 163.462C229.127 165.482 228.405 167.504 227.676 169.531C225.005 177.019 222.249 184.991 222.659 193.373C222.901 198.337 224.626 203.638 227.907 205.341C230.968 206.919 234.312 204.984 237.267 203.07C238.519 202.27 239.76 201.471 241.012 200.661C245.502 197.769 250.477 194.803 255.22 196.738C259.564 198.505 262.771 204.405 263.381 210.768C263.941 216.954 262.432 223.149 259.09 228.384Z" fill="white"/>
<path id="Vector_7" d="M285.8 318.282C272.684 310.206 259.568 302.131 246.452 294.055L246.675 293.482C238.52 296.588 235.134 311.083 236.482 322.938C237.829 334.792 242.399 345.389 244.708 356.94C247.821 372.746 246.646 389.098 241.305 404.297C258.552 384.946 273.815 363.914 286.865 341.517C288.688 338.694 290.078 335.614 290.987 332.379C291.82 328.937 291.692 324.799 290.023 322.039C288.949 320.455 287.498 319.164 285.8 318.282Z" fill="white"/>
<path id="Vector_8" d="M234.036 171.363C232.643 174.494 232.107 178.67 233.371 181.91C234.662 185.219 237.39 186.714 239.903 187.959L247.15 191.551C249.561 192.746 252.159 193.953 254.617 192.97C257.582 191.784 259.637 187.137 259.105 182.822C258.539 178.231 255.645 175.073 252.969 172.384C249.223 168.62 245.478 164.857 241.732 161.093L239.621 163.678C237.338 165.905 235.45 168.504 234.036 171.363Z" fill="white"/>
<path id="Vector_9" d="M489.142 220.444C492.402 221.212 495.662 221.979 498.923 222.747C498.355 233.759 492.896 243.95 485.577 247.641C482.527 249.177 479.13 249.745 476.605 252.616C474.323 255.224 473.166 259.284 472.104 263.164C470.243 269.938 468.381 276.711 466.519 283.483C464.521 290.782 461.955 298.891 456.76 301.52C452.3 303.782 447.2 301.016 443.771 296.377C440.342 291.739 438.25 285.503 436.22 279.424C436.346 286.05 433.264 292.549 428.9 294.853C424.525 297.156 419.203 295.073 416.279 289.931C414.176 286.239 413.303 281.37 411.242 277.626C409.18 273.882 404.858 271.736 402.607 275.249C401.124 277.584 401.313 281.159 400.577 284.125C399.431 288.732 395.96 291.624 392.521 291.876C389.093 292.129 385.748 290.151 382.877 287.47C376.956 281.916 372.591 273.103 370.898 263.312C370.151 258.947 369.941 254.193 371.235 250.102C372.528 246.011 375.652 242.856 378.754 243.634C380.795 239.322 376.767 233.601 373.138 234.106C369.499 234.611 366.649 238.512 363.662 241.51C360.686 244.507 356.521 246.684 353.524 243.708C353.545 246.474 351.294 248.304 349.348 248.072C347.413 247.852 345.688 246.295 343.911 245.191C337.043 240.91 328.325 243.75 323.445 251.848C326.495 238.87 330.964 223.978 340.335 220.928C344.164 219.676 348.339 220.707 351.957 218.54C358.362 214.702 359.655 200.199 354.123 194.214C354.828 199.872 354.691 206.477 351.704 210.348C348.717 214.218 342.449 211.694 342.828 205.972C341.965 209.916 337.674 210.516 335.697 207.487C333.709 204.458 333.878 199.504 335.287 195.886C336.696 192.269 339.094 189.671 341.418 187.178C346.414 181.825 351.483 176.409 357.268 173.043C363.063 169.678 369.752 168.542 375.557 171.886C378.618 173.653 381.31 176.598 384.433 178.155C387.557 179.722 391.522 179.522 393.594 175.862C395.918 171.781 394.824 165.723 395.687 160.623C397.233 151.609 406.246 147.392 411.242 153.345C407.508 152.388 403.648 156.805 403.185 162.158C402.712 167.511 405.415 172.917 409.033 174.537C415.112 177.229 421.064 170.456 425.661 164.188C430.456 157.625 435.259 151.066 440.069 144.51C440.837 143.394 441.699 142.346 442.646 141.376C444.152 139.908 446.16 139.067 448.263 139.024C450.367 138.981 452.407 139.739 453.973 141.145C458.831 145.11 461.114 153.24 465.1 158.835C470.884 166.964 479.54 168.942 487.596 170.519C493.601 171.687 499.61 172.861 505.622 174.042C509.63 181.498 513.126 189.218 516.087 197.149C505.906 201.471 496.514 209.559 489.142 220.444Z" fill="white"/>
<path id="Vector_10" d="M508.556 346.986C504.051 356.135 498.81 364.904 492.886 373.205C489.1 371.585 485.03 374.478 481.485 377.191C477.783 380.031 473.335 382.797 469.538 380.209C465.657 377.559 464.406 370.145 465.636 364.266C466.867 358.397 469.937 353.727 472.914 349.289C476.069 344.577 479.445 339.687 483.831 337.857C488.227 336.027 493.874 338.614 495.158 344.861L498.271 344.756C496.525 342.358 497.44 337.394 499.785 336.521C502.488 335.501 504.833 339.214 506.432 342.495C507.147 343.978 507.873 345.471 508.556 346.986Z" fill="white"/>
<path id="Vector_11" d="M389.328 302.563C382.637 302.983 377.337 294.746 373.815 286.642C370.293 278.539 367.079 269.271 361.041 265.147C357.592 262.79 353.658 262.466 349.917 261.324C346.175 260.182 342.258 257.819 340.469 253.006L336.225 251.291C330.619 254.443 324.939 257.653 320.109 262.782C314.691 268.537 311.317 275.914 310.506 283.776C309.695 292.272 312.69 301.745 318.284 304.937C322.705 307.459 327.852 305.869 332.329 308.178C337.924 311.062 341.245 319.442 342.503 327.715C343.76 335.988 343.441 344.586 344.341 352.953C345.24 361.32 347.72 370.027 352.85 374.314C359.271 379.68 368.691 375.221 371.572 365.454C372.985 360.663 372.936 355.257 373.993 350.283C375.854 341.525 380.876 335.027 384.859 327.842C388.842 320.658 391.978 310.9 389.328 302.563Z" fill="white"/>
<path id="Vector_12" d="M323.208 216.499C323.832 217.074 324.414 217.692 324.95 218.349C325.505 219.306 325.789 220.396 325.77 221.502C325.751 222.608 325.431 223.688 324.843 224.625C325.649 224.579 326.437 224.367 327.157 224.001C327.877 223.635 328.513 223.124 329.025 222.5C330.246 221.109 331.32 219.596 332.231 217.984C332.913 216.871 333.639 215.367 333.176 214.045C332.86 213.143 332.112 212.758 331.588 212.079C330.758 211.004 330.552 209.296 330.122 207.82C329.193 204.632 326.969 202.288 324.555 201.953L324.89 202.017C323.881 202.363 323.177 203.964 323.4 205.405C323.603 206.718 324.447 207.807 324.363 209.146C324.242 211.071 322.319 211.974 322.2 213.899C322.181 214.865 322.543 215.799 323.208 216.499Z" fill="white"/>
<path id="Vector_13" d="M311.744 183.791C311.753 183.788 311.763 183.788 311.773 183.785C311.979 183.598 312.17 183.394 312.344 183.177L311.744 183.791Z" fill="#E6E6E6"/>
<path id="Vector_14" d="M313.75 192.826C315.23 191.874 316.056 189.243 315.567 187.041C315.081 184.852 313.36 183.381 311.773 183.785C311.313 184.252 310.742 184.594 310.113 184.779C309.484 184.964 308.818 184.986 308.178 184.844C307.197 184.591 306.12 183.941 305.269 184.68C304.783 185.232 304.442 185.897 304.278 186.615C303.964 187.581 303.649 188.548 303.334 189.515C303.184 189.861 303.145 190.245 303.222 190.614C303.282 190.762 303.38 190.892 303.505 190.991C303.63 191.091 303.778 191.156 303.936 191.182C305.826 191.739 307.715 192.296 309.605 192.853C310.982 193.259 312.469 193.65 313.75 192.826Z" fill="white"/>
<path id="Vector_15" d="M456.406 317.558C455.533 316.127 454.659 314.697 453.786 313.267C452.928 311.611 451.755 310.138 450.333 308.931C450.02 308.669 449.658 308.473 449.268 308.353C448.878 308.233 448.468 308.192 448.063 308.232C447.657 308.273 447.263 308.394 446.905 308.589C446.547 308.784 446.231 309.049 445.977 309.368L446.083 310.185C448.074 312.683 450.18 315.458 450.685 319.165C450.885 320.626 450.815 322.139 450.99 323.607C451.165 325.075 451.661 326.597 452.608 327.23C453.984 328.149 455.599 326.794 456.578 325.141C457.453 323.783 457.845 322.17 457.692 320.562C457.474 319.483 457.036 318.46 456.406 317.558Z" fill="white"/>
<path id="Vector_16" d="M495.282 262.94C495.534 261.283 495.787 259.627 496.04 257.97C496.45 256.151 496.501 254.268 496.19 252.429C496.119 252.028 495.969 251.644 495.748 251.301C495.527 250.958 495.24 250.663 494.903 250.433C494.567 250.203 494.187 250.042 493.788 249.96C493.388 249.879 492.976 249.878 492.576 249.958L492.132 250.651C492.046 253.845 491.871 257.324 489.87 260.486C489.081 261.732 488.054 262.845 487.242 264.08C486.431 265.316 485.83 266.8 486.147 267.894C486.608 269.483 488.716 269.486 490.529 268.852C492.073 268.377 493.412 267.396 494.331 266.067C494.859 265.101 495.182 264.036 495.282 262.94Z" fill="#E6E6E6"/>
<path id="Vector_17" d="M470.109 319.419C470.536 318.191 469.92 316.783 469.789 315.426C469.727 313.673 470.191 311.942 471.123 310.457C472.049 309.055 472.75 307.518 473.201 305.9C473.392 305.163 473.357 304.386 473.102 303.669C472.813 303.019 472.112 302.723 471.711 303.238L472.57 303.791C471.409 303.584 470.217 303.642 469.082 303.96C468.434 304.208 467.855 304.608 467.395 305.127C466.935 305.646 466.606 306.268 466.437 306.941C466.296 307.989 466.064 309.024 465.744 310.033C465.231 311.087 464.239 311.438 463.615 312.363C463.19 313.183 462.975 314.096 462.99 315.02C463.005 315.944 463.25 316.849 463.703 317.655C464.486 318.972 465.731 319.952 467.197 320.402C468.246 320.779 469.629 320.799 470.109 319.419Z" fill="white"/>
<path id="Vector_18" d="M494.511 326.781C494.891 327.769 495.399 328.702 496.023 329.556C497.191 330.733 498.779 330.01 500.196 329.724C501.482 329.521 502.799 329.669 504.008 330.154C505.216 330.639 506.271 331.441 507.06 332.477C506.511 329.736 505.311 327.167 503.563 324.985C501.814 322.804 499.568 321.074 497.012 319.94C493.671 318.578 490.152 318.447 486.678 318.324L486.078 318.478C487.607 322.93 492.409 322.83 494.511 326.781Z" fill="white"/>
<path id="Vector_19" d="M391.159 335.886L391.168 335.905C391.226 335.793 391.284 335.681 391.342 335.569L391.159 335.886Z" fill="#E6E6E6"/>
<path id="Vector_20" d="M387.457 343.052C386.65 344.517 385.955 346.042 385.38 347.614C384.619 350.159 384.114 352.774 383.875 355.42C383.687 356.925 383.629 358.846 384.571 359.579C384.842 359.759 385.169 359.834 385.491 359.79C385.813 359.746 386.108 359.587 386.32 359.342C386.844 358.788 387.272 358.151 387.588 357.457C389.441 354.266 390.879 350.852 391.869 347.298C392.771 343.554 392.762 339.147 391.168 335.905C389.931 338.288 388.694 340.67 387.457 343.052Z" fill="white"/>
<path id="Vector_21" d="M388.775 139.718C389.366 140.37 390.183 140.772 391.06 140.843C391.937 140.915 392.808 140.65 393.497 140.102C394.09 139.657 394.582 139.092 394.942 138.443C395.302 137.795 395.521 137.079 395.586 136.34C395.734 134.69 394.919 132.856 393.754 132.714L394.02 131.169C391.776 130.764 389.014 130.683 387.811 133.408C387.406 134.452 387.281 135.584 387.45 136.692C387.619 137.799 388.076 138.842 388.775 139.718Z" fill="#E6E6E6"/>
<path id="bcc29a3a-8123-4529-80aa-6f70df2823cf" d="M357.608 236.594C363.498 236.594 368.272 231.819 368.272 225.929C368.272 220.039 363.498 215.265 357.608 215.265C351.718 215.265 346.943 220.039 346.943 225.929C346.943 231.819 351.718 236.594 357.608 236.594Z" fill="#F159C0"/>
<path id="bcc29a3a-8123-4529-80aa-6f70df2823cf_2" d="M211.555 255.543C215.978 255.543 219.564 251.958 219.564 247.535C219.564 243.112 215.978 239.526 211.555 239.526C207.132 239.526 203.546 243.112 203.546 247.535C203.546 251.958 207.132 255.543 211.555 255.543Z" fill="#F159C0"/>
<path id="Vector_22" d="M614.063 564.054H600.638L594.251 512.27L614.066 512.271L614.063 564.054Z" fill="#A0616A"/>
<path id="Vector_23" d="M621.285 589.546H611.759L610.059 580.552L605.704 589.546H580.437C579.226 589.546 578.047 589.159 577.071 588.441C576.096 587.723 575.375 586.712 575.015 585.556C574.654 584.4 574.673 583.159 575.068 582.014C575.463 580.869 576.213 579.88 577.21 579.192L597.387 565.257V556.165L618.609 557.431L621.285 589.546Z" fill="#2F2E41"/>
<path id="Vector_24" d="M562.063 564.054H548.638L542.251 512.27L562.066 512.271L562.063 564.054Z" fill="#A0616A"/>
<path id="Vector_25" d="M569.285 589.546H559.759L558.059 580.552L553.704 589.546H528.437C527.226 589.546 526.047 589.159 525.071 588.441C524.096 587.723 523.375 586.712 523.015 585.556C522.654 584.4 522.673 583.159 523.068 582.014C523.463 580.869 524.213 579.88 525.21 579.192L545.387 565.257V556.165L566.609 557.431L569.285 589.546Z" fill="#2F2E41"/>
<path id="Vector_26" d="M511.059 427.333C513.628 431.187 541.578 537.126 541.578 537.126L566.36 539.953L563.419 513.297L558.923 466.128L551.96 434.642C551.96 434.642 576.547 378.686 578.102 374.228L579.206 371.03L586.888 440.744C587.801 443.233 588.198 445.881 588.057 448.529C587.826 452.883 592.193 518.397 592.193 518.397L594.293 541.892L615.526 544.842L624.141 504.19C631.335 490.984 627.211 444.058 624.27 439.691C621.328 435.323 622.497 404.904 622.497 404.904C626.253 403.582 648.653 327.198 637.449 327.649C638.169 323.577 638.734 319.941 638.734 319.941L619.285 304.257L570.612 291.604L558.333 285.707C558.333 285.707 536.401 326.262 536.619 328.279C536.921 330.833 536.336 333.414 534.962 335.588L512.819 409.696C512.819 409.696 508.464 423.441 511.059 427.333Z" fill="#2F2E41"/>
<path id="Vector_27" d="M633.341 162.147L625.598 145.707L599.244 146.72L590.647 163.824C590.647 163.824 566.081 193.166 565.285 202.707C564.285 214.707 572.597 273.52 564.285 269.707C564.285 269.707 544.691 292.707 556.285 292.707C567.88 292.707 620.328 325.631 623.769 329.334C627.211 333.036 642.574 335.437 641.285 327.707C639.997 319.978 633.341 278.174 633.341 278.174L651.36 212.441C656.546 198.249 658.16 182.33 646.437 172.797L633.341 162.147Z" fill="#CCCCCC"/>
<path id="bcc29a3a-8123-4529-80aa-6f70df2823cf_3" d="M495.528 209.923C498.935 209.923 501.697 207.161 501.697 203.754C501.697 200.347 498.935 197.585 495.528 197.585C492.12 197.585 489.358 200.347 489.358 203.754C489.358 207.161 492.12 209.923 495.528 209.923Z" fill="#F159C0"/>
<path id="Vector_28" d="M492.747 201.63C494.181 201.334 495.663 201.357 497.088 201.696C498.512 202.034 499.845 202.681 500.992 203.591C502.14 204.501 503.074 205.651 503.728 206.961C504.383 208.271 504.743 209.708 504.782 211.172L526.15 219.374L524.333 233.575L494.319 221.568C491.856 221.471 489.514 220.474 487.737 218.765C485.96 217.056 484.871 214.755 484.677 212.297C484.484 209.84 485.198 207.396 486.685 205.43C488.173 203.464 490.33 202.112 492.747 201.63Z" fill="#A0616A"/>
<path id="Vector_29" d="M642.053 172.365C639.803 170.991 637.305 170.076 634.7 169.67C632.095 169.264 629.436 169.377 626.875 170.001C624.315 170.625 621.902 171.749 619.776 173.308C617.651 174.867 615.853 176.83 614.488 179.084L583.817 229.733L514.47 213.296L508.153 230.64L596.958 272.706L641.935 201.069C648.669 191.605 651.966 178.417 642.053 172.365Z" fill="#CCCCCC"/>
<path id="Vector_30" d="M643.199 110.293C643.2 115.175 642.004 119.982 639.714 124.293C637.424 128.605 634.111 132.288 630.065 135.02C626.02 137.752 621.365 139.449 616.51 139.962C611.656 140.475 606.749 139.788 602.222 137.963C597.695 136.137 593.685 133.228 590.544 129.491C587.404 125.753 585.228 121.302 584.21 116.528C583.191 111.754 583.359 106.803 584.701 102.109C586.042 97.4151 588.515 93.1225 591.903 89.6077L592.046 89.4647C592.285 89.2141 592.524 88.9636 592.774 88.7249C592.776 88.725 592.777 88.7247 592.779 88.7241C592.78 88.7235 592.781 88.7226 592.783 88.7215C592.784 88.7204 592.785 88.7191 592.785 88.7176C592.786 88.7161 592.786 88.7146 592.786 88.713C593.096 88.4267 593.406 88.1404 593.728 87.8661C598.038 84.088 603.345 81.6319 609.014 80.792C614.683 79.952 620.474 80.7638 625.694 83.1302C630.914 85.4965 635.341 89.317 638.445 94.1344C641.55 98.9518 643.2 104.562 643.199 110.293Z" fill="#2F2E41"/>
<path id="Vector_31" d="M606.028 142.201C619.84 142.201 631.036 131.004 631.036 117.193C631.036 103.382 619.84 92.1853 606.028 92.1853C592.217 92.1853 581.02 103.382 581.02 117.193C581.02 131.004 592.217 142.201 606.028 142.201Z" fill="#9E616A"/>
<path id="Vector_32" d="M632.584 124.325L628.441 123.593C626.126 123.172 623.994 122.054 622.331 120.389C620.668 118.724 619.554 116.591 619.136 114.276L615.093 121.051L614.916 121.11C605.284 124.308 595.261 123.352 584.283 118.19C581.144 116.701 578.099 115.022 575.164 113.162L574.948 113.027L574.93 112.773C574.37 104.637 576.196 97.841 580.072 93.6354C581.56 92.0531 583.365 90.8032 585.37 89.9674C587.375 89.1317 589.534 88.729 591.705 88.7858C591.86 88.7455 592.002 88.6671 592.118 88.5578C592.174 88.5168 592.23 88.4763 592.285 88.4377V88.3957L592.573 88.2604C593.19 87.9704 593.819 87.6926 594.448 87.4387C599.396 85.5231 604.784 85.0426 609.994 86.0523C615.203 87.062 620.022 89.521 623.896 93.1467C631.599 100.501 635.132 112.842 632.688 123.858L632.584 124.325Z" fill="#2F2E41"/>
<path id="Vector_33" d="M685.331 145.632C676.821 141.239 687.766 125.297 685.566 115.976C683.367 106.656 667.529 103.658 666.52 94.1341C665.512 84.6106 663.138 74.7881 656.854 67.5616C652.838 62.9439 646.921 59.535 640.829 60.1134C638.767 60.3091 636.773 60.9467 634.98 61.9829C633.187 63.019 631.639 64.4294 630.441 66.1178C629.242 67.8063 628.422 69.7332 628.035 71.7674C627.649 73.8015 627.705 75.895 628.2 77.9054C626.466 75.4477 621.977 75.9803 620.866 78.776C619.878 81.2612 622.06 84.2716 624.628 84.4915C627.989 88.6415 631.837 93.0458 637.102 93.883C637.941 94.0756 638.812 94.0751 639.651 93.8815C640.489 93.688 641.273 93.3064 641.943 92.7656C643.181 91.5762 643.277 89.1982 641.808 88.3094C648.424 90.9375 652.303 98.0909 653.285 105.142C654.267 112.193 652.908 119.327 652.013 126.39C651.119 133.452 650.733 140.882 653.502 147.44C656.774 155.189 664.307 160.743 672.527 162.524C680.748 164.305 689.503 162.564 696.944 158.642C704.385 154.72 710.59 148.733 715.659 142.021C706.927 148.221 694.847 150.543 685.331 145.632Z" fill="#2F2E41"/>
<path id="Vector_34" d="M631.52 123.63C631.52 123.63 624.112 95.978 592.357 89.5958C592.321 89.584 592.201 89.5362 592.046 89.4647C591.951 89.405 591.832 89.3453 591.712 89.2857C592.07 89.0829 592.416 88.9041 592.774 88.725L592.779 88.7241L592.783 88.7215L592.785 88.7176L592.786 88.713C593.096 88.4267 593.406 88.1405 593.728 87.8661L594.635 87.9019C594.635 87.9019 626.498 82.8559 631.52 123.63Z" fill="#FD6584"/>
<path id="Vector_35" opacity="0.2" d="M614.934 212.357L596.999 233.136L567.364 224.385L599.671 239.273L614.934 212.357Z" fill="black"/>
<path id="Vector_36" d="M722.586 591.112L446.836 591.419C446.521 591.418 446.219 591.292 445.996 591.069C445.773 590.846 445.648 590.543 445.648 590.228C445.648 589.913 445.773 589.611 445.996 589.388C446.219 589.164 446.521 589.039 446.836 589.038L722.586 588.73C722.901 588.73 723.204 588.856 723.428 589.079C723.651 589.302 723.776 589.605 723.776 589.921C723.776 590.237 723.651 590.54 723.428 590.763C723.204 590.986 722.901 591.112 722.586 591.112Z" fill="#CACACA"/>
<path id="Vector_37" d="M734.689 406.072C721.777 406.072 707.625 405.584 692.233 404.608C612.619 399.552 509.495 381.975 401.857 355.116C294.219 328.256 194.927 295.322 122.271 262.381C86.8789 246.335 59.7153 231.145 41.5361 217.234C22.289 202.507 13.8701 189.67 16.5122 179.081C21.6602 158.452 67.2432 153.939 104.576 153.786L104.589 156.786C53.3208 156.996 23.0752 165.173 19.4233 179.808C14.7715 198.448 52.71 227.549 123.51 259.649C196.006 292.517 295.116 325.388 402.583 352.206C510.051 379.022 612.985 396.569 692.423 401.614C770.002 406.542 817.167 398.676 821.818 380.036C825.68 364.559 800.22 341.76 750.128 315.838L751.507 313.173C787.904 332.009 830.153 359.025 824.729 380.762C822.086 391.351 808.624 398.727 784.714 402.685C771.085 404.941 754.344 406.072 734.689 406.072Z" fill="#F159C0"/>
<g id="Pointer_3">
<path id="Vector_38" d="M231.245 120.236C221.364 119.122 211.445 121.978 203.67 128.177C195.895 134.376 190.901 143.409 189.787 153.29C187.466 173.866 198.306 218.548 218.069 237.044C227.375 201.607 259.984 180.587 264.299 161.695C268.91 141.508 251.821 122.557 231.245 120.236Z" fill="#F159C0"/>
<path id="b262ea8c-1946-46c9-a449-3a1996c39394" d="M224.412 165.979C231.165 165.979 236.639 160.505 236.639 153.752C236.639 146.998 231.165 141.524 224.412 141.524C217.658 141.524 212.184 146.998 212.184 153.752C212.184 160.505 217.658 165.979 224.412 165.979Z" fill="white"/>
<path id="Vector_39" opacity="0.2" d="M234.529 144.991C235.905 145.818 237.105 146.908 238.06 148.199C239.015 149.49 239.707 150.956 240.095 152.514C240.483 154.072 240.561 155.691 240.324 157.279C240.086 158.868 239.539 160.393 238.712 161.77C237.885 163.146 236.794 164.346 235.504 165.301C234.213 166.256 232.747 166.948 231.189 167.336C229.631 167.724 228.011 167.802 226.423 167.565C224.835 167.327 223.309 166.78 221.933 165.953C224.767 166.583 227.733 166.184 230.3 164.828C232.867 163.471 234.867 161.245 235.943 158.549C237.019 155.852 237.1 152.86 236.172 150.109C235.243 147.358 233.366 145.028 230.876 143.534C232.164 143.82 233.398 144.312 234.529 144.991Z" fill="#231F20"/>
<path id="Vector_40" opacity="0.2" d="M264.347 161.735C260.032 180.627 227.423 201.646 218.117 237.083C216.259 235.327 214.532 233.436 212.953 231.425C223.41 198.115 253.989 177.875 258.158 159.622C261.889 143.285 251.408 127.759 236.369 121.2C254.574 125.777 268.572 143.235 264.347 161.735Z" fill="#231F20"/>
</g>
<g id="Pointer_2">
<path id="Vector_41" d="M390.62 68.3148C377.462 66.8306 364.254 70.6341 353.901 78.8885C343.547 87.1429 336.897 99.172 335.413 112.33C332.322 139.729 346.757 199.228 373.075 223.858C385.466 176.669 428.889 148.679 434.635 123.522C440.774 96.641 418.019 71.4055 390.62 68.3148Z" fill="#F159C0"/>
<path id="b262ea8c-1946-46c9-a449-3a1996c39394_2" d="M385.282 122.565C394.275 122.565 401.565 115.275 401.565 106.282C401.565 97.2899 394.275 90 385.282 90C376.29 90 369 97.2899 369 106.282C369 115.275 376.29 122.565 385.282 122.565Z" fill="white"/>
<path id="Vector_42" opacity="0.2" d="M398.773 95.9401C400.605 97.0414 402.203 98.4929 403.475 100.212C404.747 101.931 405.668 103.883 406.185 105.958C406.702 108.032 406.806 110.189 406.49 112.303C406.173 114.418 405.444 116.45 404.343 118.283C403.241 120.115 401.79 121.713 400.071 122.985C398.352 124.257 396.4 125.178 394.325 125.695C390.135 126.74 385.701 126.077 382 123.853C385.774 124.692 389.724 124.161 393.142 122.355C396.56 120.548 399.224 117.584 400.656 113.993C402.089 110.402 402.197 106.419 400.961 102.756C399.724 99.0924 397.225 95.9887 393.909 94C395.624 94.3801 397.267 95.0353 398.773 95.9401Z" fill="#231F20"/>
<path id="Vector_43" opacity="0.2" d="M446.438 122.976C440.692 148.133 397.269 176.123 384.877 223.312C382.402 220.974 380.104 218.455 378 215.777C391.925 171.421 432.645 144.469 438.196 120.163C443.165 98.4082 429.208 77.7336 409.182 69C433.424 75.094 452.064 98.3425 446.438 122.976Z" fill="#231F20"/>
</g>
<g id="Pointer_1">
<path id="Vector_44" d="M534.821 115.038C531.296 113.638 527.53 112.947 523.738 113.003C519.945 113.059 516.201 113.862 512.719 115.365C509.237 116.868 506.085 119.043 503.444 121.764C500.802 124.485 498.722 127.7 497.323 131.225C491.438 146.05 490.463 181.453 501.414 199.197C515.495 174.738 543.982 165.706 551.009 152.536C558.517 138.463 549.646 120.922 534.821 115.038Z" fill="#F159C0"/>
<path id="b262ea8c-1946-46c9-a449-3a1996c39394_3" d="M526.419 153.838C531.621 153.838 535.838 149.621 535.838 144.419C535.838 139.217 531.621 135 526.419 135C521.217 135 517 139.217 517 144.419C517 149.621 521.217 153.838 526.419 153.838Z" fill="white"/>
<path id="Vector_45" opacity="0.2" d="M532.6 138.821C534.325 140.625 535.264 143.04 535.21 145.536C535.156 148.032 534.113 150.404 532.311 152.132C530.508 153.859 528.094 154.8 525.598 154.748C523.102 154.697 520.729 153.656 519 151.856C520.979 152.897 523.264 153.2 525.447 152.711C527.629 152.221 529.566 150.971 530.911 149.184C532.255 147.397 532.92 145.19 532.786 142.958C532.652 140.725 531.728 138.613 530.18 137C531.079 137.473 531.897 138.088 532.6 138.821Z" fill="#231F20"/>
<path id="Vector_46" opacity="0.2" d="M555.29 156.785C548.264 169.955 519.776 178.987 505.695 203.446C504.669 201.765 503.768 200.01 503 198.196C517.507 175.551 544.328 166.688 551.117 153.963C557.193 142.575 552.541 128.915 542.688 121C555.295 128.082 562.17 143.889 555.29 156.785Z" fill="#231F20"/>
</g>
</g>
<defs>
<clipPath id="clip0_0_1">
<rect width="825.202" height="591.419" fill="white"/>
</clipPath>
</defs>
</svg>
